<svg xmlns="http://www.w3.org/2000/svg" aria-hidden="true" style="position:absolute;width:0;height:0;overflow:hidden">
  <defs>
    <symbol id="icon-close" viewBox="0 0 32 32">
      <path fill="none" stroke="#fff" stroke-linecap="round" stroke-linejoin="round" stroke-width="1.778" d="M22.222 9.778 9.778 22.222m0-12.444 12.444 12.444" style="stroke:var(--color1, #fff)"/>
    </symbol>
    <symbol id="icon-discord" viewBox="0 0 33 32">
      <path fill="#fff" d="M27.111 5.96c.22.1.409.257.547.456 3.48 5.04 5.227 10.773 4.587 17.333a1.33 1.33 0 0 1-.54.947 25.583 25.583 0 0 1-7.827 3.88 1.315 1.315 0 0 1-1.44-.476 19.615 19.615 0 0 1-1.613-2.533 19.037 19.037 0 0 1-4.44.528c-1.507 0-3-.179-4.44-.529a18.65 18.65 0 0 1-1.613 2.533 1.332 1.332 0 0 1-1.454.476 25.751 25.751 0 0 1-7.827-3.893 1.332 1.332 0 0 1-.54-.948c-.547-5.68.557-11.467 4.573-17.333.137-.201.328-.361.551-.463a26.185 26.185 0 0 1 6.387-1.947 1.345 1.345 0 0 1 1.387.659c.142.253.279.51.411.769a23.943 23.943 0 0 1 5.12 0c.13-.26.267-.516.411-.769a1.336 1.336 0 0 1 1.387-.659 25.84 25.84 0 0 1 6.387 1.947l-.012.023zm-7.373.932a22.794 22.794 0 0 0-6.72 0 16.64 16.64 0 0 0-.775-1.56A24.19 24.19 0 0 0 6.19 7.185c-3.827 5.613-4.867 11.08-4.347 16.4a24.367 24.367 0 0 0 7.427 3.693 17.186 17.186 0 0 0 1.589-2.535 16.07 16.07 0 0 1-1.191-.496l-.044-.02a15.962 15.962 0 0 1-1.269-.667c.209-.149.415-.307.613-.455a17.603 17.603 0 0 0 14.842-.001c.202.164.406.316.613.456l-.317.18c-.313.173-.632.336-.956.488l-.041.02c-.39.181-.788.347-1.192.496a17.36 17.36 0 0 0 1.589 2.535 24.413 24.413 0 0 0 7.427-3.68c.609-6.253-1.04-11.667-4.36-16.533a24.411 24.411 0 0 0-6.053-1.84 16.888 16.888 0 0 0-.775 1.56l-.007.105zM8.871 17.439c0 1.6 1.195 2.893 2.64 2.893 1.48 0 2.613-1.299 2.64-2.893.025-1.6-1.16-2.907-2.64-2.907s-2.64 1.311-2.64 2.907zm9.747 0c0 1.6 1.191 2.893 2.64 2.893 1.48 0 2.613-1.299 2.64-2.893.027-1.6-1.151-2.907-2.64-2.907s-2.64 1.311-2.64 2.907z" style="fill:var(--color1, #fff)"/>
    </symbol>
    <symbol id="icon-linkedin" viewBox="0 0 33 32">
      <path fill="none" stroke="#fff" stroke-width="1.778" d="M17.381 12.202v2.394l2.964-1.238a8.889 8.889 0 0 1 2.616-.645C25.68 12.473 28 14.554 28 17.138v10.418h-3.864v-8.323c0-.886-.361-1.732-.997-2.352s-1.492-.962-2.38-.962c-.888 0-1.745.343-2.38.962s-.997 1.465-.997 2.352v8.323h-3.864V12.203h3.864zm-8.628 0v15.353H4.889V12.202h3.864zM6.82 4.444c.52 0 1.014.202 1.375.553s.557.82.557 1.306c0 .485-.197.956-.557 1.306s-.855.552-1.375.552-1.014-.201-1.374-.552-.557-.821-.557-1.306c0-.485.198-.955.557-1.306s.854-.553 1.374-.553z" style="stroke:var(--color1, #fff)"/>
    </symbol>
    <symbol id="icon-menu" viewBox="0 0 38 32">
      <path fill="none" stroke="#fff" stroke-linecap="round" stroke-linejoin="round" stroke-width="1.067" d="M34.133 9.6H12.8M34.133 16h-28.8M34.133 22.4H12.8" style="stroke:var(--color1, #fff)"/>
    </symbol>
    <symbol id="icon-twitter" viewBox="0 0 33 32">
      <path fill="#fff" d="m18.811 14.094 9.265-10.539H25.88l-8.043 9.15-6.427-9.15H3.999l9.717 13.838-9.717 11.051h2.196l8.495-9.664 6.787 9.664h7.411l-10.077-14.35zm-3.006 3.421L6.987 5.174h3.373l15.523 21.728H22.51l-6.705-9.387z" style="fill:var(--color1, #fff)"/>
    </symbol>
  </defs>
</svg>
